<svg width="30" height="30" viewBox="0 0 30 30" fill="none" xmlns="http://www.w3.org/2000/svg">
<path d="M15.0789 11.6066L14.1775 13.6232C14.0608 13.8832 14.0103 14.169 14.0308 14.4541C14.0513 14.7392 14.1421 15.0144 14.2949 15.2544L15.0789 16.5047L15.8627 15.2544C16.0155 15.0144 16.1063 14.7392 16.1268 14.4541C16.1473 14.169 16.0969 13.8832 15.9801 13.6232L15.0789 11.6066Z" fill="#14599D"/>
<path d="M15.0792 6.51259L14.3025 8.13523C14.2021 8.34317 14.1584 8.57473 14.1762 8.80568C14.1941 9.03663 14.2726 9.25846 14.4037 9.44796L15.0794 10.4541L15.7548 9.44713C15.8859 9.25764 15.9645 9.0358 15.9823 8.80485C16.0001 8.57391 15.9565 8.34234 15.856 8.1344L15.0792 6.51259Z" fill="#14599D"/>
<path d="M15.0794 3.92556L14.6948 4.7296C14.6449 4.83257 14.6233 4.94727 14.6321 5.06167C14.641 5.17607 14.6799 5.28594 14.745 5.37975L15.0794 5.87801L15.4138 5.37975C15.4788 5.28594 15.5178 5.17607 15.5266 5.06167C15.5354 4.94727 15.5138 4.83257 15.464 4.7296L15.0794 3.92556Z" fill="#14599D"/>
<path d="M12.901 4.50697L12.2715 6.17815C12.1903 6.39524 12.1678 6.63044 12.2062 6.85937C12.2446 7.0883 12.3425 7.30262 12.4899 7.48011L13.2532 8.43753L13.8371 7.38868C13.951 7.18813 14.0096 6.96009 14.0067 6.72855C14.0038 6.49701 13.9396 6.27054 13.8208 6.07297L12.901 4.50697Z" fill="#14599D"/>
<path d="M13.9179 16.1544C13.6958 15.9586 13.5149 15.7194 13.3859 15.4509C13.2569 15.1824 13.1825 14.8902 13.1672 14.5919C13.1093 13.568 13.3404 12.9932 12.1853 11.6822C12.1886 12.371 12.0845 13.0561 11.8767 13.7118C11.5494 14.6097 12.2617 16.2263 13.9174 16.1545" fill="#14599D"/>
<path d="M12.9359 16.4535C12.9359 16.4535 12.031 16.2859 11.2224 15.0456C10.4137 13.8052 9.23926 13.1352 7.71914 13.4875C8.34015 13.9383 8.89169 14.4805 9.35562 15.0964C10.1642 16.1522 11.4541 16.7891 12.9367 16.4547" fill="#14599D"/>
<path d="M13.687 12.6994C13.4916 12.23 13.2252 11.7947 12.8975 11.409C12.3199 10.705 13.0128 9.58229 13.3018 9.21357C13.4821 9.58311 13.7016 9.93153 13.9564 10.2527C14.4376 10.8896 14.3609 11.409 13.687 12.6994Z" fill="#14599D"/>
<path d="M12.0311 10.4368C12.0311 10.4368 12.0119 10.2525 12.3391 9.59886C12.6664 8.94523 12.3391 8.07378 11.4344 7.40342C11.3506 7.81783 11.2414 8.22651 11.1073 8.62703C10.8955 9.24703 11.1842 9.80012 12.0315 10.437" fill="#14599D"/>
<path d="M9.51825 10.8387C9.51825 10.8387 9.43873 10.6669 9.53553 9.95897C9.63233 9.25101 9.03034 8.49865 7.94159 8.08405C7.99841 8.4995 8.02916 8.91821 8.03366 9.33764C8.03627 9.98365 8.49615 10.4417 9.51825 10.8387Z" fill="#14599D"/>
<path d="M10.4276 13.0322C10.4276 13.0322 10.2617 12.9162 9.94831 12.2576C9.63493 11.599 8.68698 11.1991 7.50387 11.301C7.78508 11.6369 8.04712 11.9889 8.2887 12.3553C8.65455 12.9185 9.31243 13.1213 10.4271 13.0323" fill="#14599D"/>
<path d="M11.2417 12.9341C11.3988 12.673 11.4974 12.38 11.5307 12.0758C11.5639 11.7716 11.5309 11.4637 11.434 11.174C11.2264 10.5361 10.2403 9.49798 10.2403 9.49798C10.2403 9.49798 9.41249 11.8778 11.2416 12.9336" fill="#14599D"/>
<path d="M17.2554 4.50697L17.8848 6.17716C17.966 6.39423 17.9885 6.62942 17.9502 6.85835C17.9118 7.08728 17.8139 7.30161 17.6666 7.47912L16.9031 8.43654L16.3192 7.38768C16.2053 7.18712 16.1468 6.95909 16.1496 6.72755C16.1525 6.49602 16.2167 6.26956 16.3355 6.07197L17.2554 4.50697Z" fill="#14599D"/>
<path d="M16.2384 16.1544C16.4604 15.9586 16.6414 15.7194 16.7704 15.4509C16.8994 15.1824 16.9738 14.8902 16.9891 14.5919C17.047 13.568 16.8159 12.9932 17.971 11.6822C17.9675 12.371 18.0715 13.0561 18.2791 13.7118C18.6064 14.6097 17.8942 16.2261 16.2384 16.1544Z" fill="#14599D"/>
<path d="M17.2202 16.4535C17.2202 16.4535 18.1251 16.2859 18.9338 15.0456C19.7424 13.8052 20.9169 13.135 22.4375 13.487C21.8165 13.9378 21.2649 14.48 20.801 15.0959C19.9924 16.1517 18.7025 16.7886 17.2199 16.4542" fill="#14599D"/>
<path d="M16.4694 12.6994C16.6647 12.23 16.9311 11.7946 17.2588 11.409C17.8364 10.705 17.1435 9.58229 16.8545 9.21357C16.6741 9.58311 16.4546 9.93153 16.1999 10.2527C15.7187 10.8896 15.7956 11.409 16.4694 12.6994Z" fill="#14599D"/>
<path d="M18.1253 10.4368C18.1253 10.4368 18.1445 10.2525 17.8173 9.59886C17.4901 8.94523 17.8173 8.07378 18.7221 7.40342C18.8059 7.81784 18.9152 8.22651 19.0493 8.62703C19.2612 9.24703 18.9725 9.79995 18.1253 10.4368Z" fill="#14599D"/>
<path d="M19.6148 8.60881C19.6148 8.60881 19.6589 8.45973 19.489 7.87782C19.319 7.29592 19.7228 6.62456 20.5702 6.19571C20.5759 6.5473 20.6035 6.89818 20.6529 7.24622C20.7322 7.78506 20.4097 8.2005 19.614 8.60881" fill="#14599D"/>
<path d="M19.7287 13.0322C19.7287 13.0322 19.8946 12.9162 20.208 12.2576C20.5213 11.599 21.4693 11.1991 22.6524 11.301C22.3712 11.6369 22.1092 11.9889 21.8676 12.3553C21.5017 12.9185 20.8439 13.1213 19.7292 13.0323" fill="#14599D"/>
<path d="M18.9145 12.9341C18.7575 12.673 18.6588 12.38 18.6255 12.0758C18.5923 11.7716 18.6252 11.4637 18.7221 11.174C18.9297 10.5361 19.9158 9.49798 19.9158 9.49798C19.9158 9.49798 20.7436 11.8778 18.9147 12.9336" fill="#14599D"/>
<path d="M10.5905 8.60881C10.5905 8.60881 10.5464 8.45973 10.7162 7.87782C10.886 7.29592 10.4827 6.62373 9.63412 6.19555C9.62842 6.54713 9.60088 6.898 9.55166 7.24606C9.47213 7.7849 9.79464 8.2005 10.5905 8.60881Z" fill="#14599D"/>
<path d="M16.7945 17.1101C16.7945 17.1101 16.1313 18.447 16.2375 22.5528C16.2838 24.3489 16.9803 29.6666 16.9803 29.6666H13.1733C13.1733 29.6666 13.8511 24.7094 13.9161 22.5528C14.0266 18.8852 13.3591 17.1101 13.3591 17.1101L15.0614 17.6778L16.7945 17.1101Z" fill="#14599D"/>
<path d="M15.0772 3.47435C15.0005 3.21828 14.9482 2.9553 14.9211 2.68904C14.8923 2.42835 14.8779 2.16622 14.8779 1.90388C14.8774 1.6415 14.8916 1.37931 14.9205 1.11857C14.9475 0.852242 15 0.589228 15.0772 0.333252C15.1544 0.58918 15.2069 0.852138 15.2339 1.1184C15.2627 1.37914 15.2769 1.64134 15.2764 1.90372C15.2765 2.16605 15.2621 2.42818 15.2332 2.68887C15.2061 2.95513 15.154 3.21829 15.0772 3.47435Z" fill="#14599D"/>
<path d="M14.3038 4.19507C14.1969 3.95468 14.1133 3.70425 14.0543 3.44735C13.9347 2.94464 13.871 2.42984 13.8645 1.91266C13.8592 1.64888 13.8797 1.38523 13.9254 1.12553C14.0328 1.36595 14.1166 1.61657 14.1756 1.87374C14.2356 2.12482 14.2813 2.37924 14.3123 2.6357C14.3441 2.89211 14.3615 3.15016 14.3643 3.40859C14.3694 3.67234 14.3493 3.93597 14.304 4.19573" fill="#14599D"/>
<path d="M13.4644 3.99298C13.336 3.79783 13.2289 3.58904 13.145 3.37033C13.0613 3.15791 12.9911 2.94025 12.9349 2.71869C12.8782 2.49734 12.8357 2.27247 12.8078 2.04551C12.777 1.81272 12.7715 1.57719 12.7915 1.34318C12.9204 1.53814 13.0276 1.74696 13.1114 1.96584C13.1951 2.17816 13.265 2.39584 13.3207 2.61748C13.3771 2.83892 13.4193 3.06383 13.4471 3.29082C13.4777 3.52352 13.4831 3.75891 13.4634 3.99282" fill="#14599D"/>
<path d="M12.5705 3.95455C12.4294 3.802 12.3071 3.63257 12.2062 3.45C12.1068 3.27443 12.0202 3.09174 11.9471 2.90338C11.8733 2.71528 11.8134 2.52189 11.7678 2.32479C11.7182 2.12154 11.6935 1.91285 11.6943 1.70346C11.8357 1.85569 11.958 2.02503 12.0587 2.20768C12.1583 2.38312 12.2449 2.56583 12.318 2.7543C12.3915 2.94288 12.4514 3.13664 12.4972 3.33405C12.5466 3.53729 12.5714 3.74588 12.5712 3.95522" fill="#14599D"/>
<path d="M11.9845 4.66665C11.8093 4.50421 11.6515 4.32331 11.5139 4.12699C11.3779 3.93668 11.2539 3.7379 11.1423 3.53183C11.0302 3.32612 10.9311 3.11333 10.8457 2.89476C10.7559 2.67159 10.6901 2.43923 10.6492 2.20171C10.8249 2.36375 10.9828 2.54458 11.1203 2.74105C11.2563 2.93128 11.3803 3.13013 11.4914 3.33637C11.603 3.54238 11.7019 3.75526 11.7875 3.97377C11.8771 4.19694 11.9432 4.42931 11.9845 4.66665Z" fill="#14599D"/>
<path d="M11.6311 5.60966C11.4085 5.4276 11.2022 5.22583 11.0147 5.00672C10.8287 4.79275 10.6537 4.56917 10.4903 4.33686C10.3265 4.1049 10.1748 3.86438 10.0357 3.61631C9.89216 3.36516 9.77109 3.10145 9.67388 2.82834C9.89668 3.01014 10.103 3.21182 10.2905 3.43095C10.4766 3.64486 10.6515 3.86863 10.8143 4.10131C10.9778 4.33345 11.1295 4.574 11.2686 4.82203C11.4119 5.07326 11.5333 5.33682 11.6311 5.60966Z" fill="#14599D"/>
<path d="M11.1671 6.57487C10.9301 6.35405 10.7103 6.1148 10.5099 5.85929L9.92012 5.12035L9.33345 4.3781C9.12989 4.1252 8.9462 3.85642 8.7841 3.57423C9.05763 3.74712 9.31693 3.94222 9.55948 4.15763C10.0471 4.58988 10.4565 5.10565 10.769 5.68155C10.9249 5.96793 11.0581 6.26648 11.1673 6.57437" fill="#14599D"/>
<path d="M15.8596 4.19507C15.8144 3.9353 15.7942 3.67168 15.7993 3.40793C15.8024 3.14971 15.82 2.89188 15.852 2.6357C15.883 2.37924 15.9287 2.12482 15.9887 1.87374C16.0477 1.6168 16.1315 1.3664 16.2388 1.12619C16.2845 1.38589 16.3049 1.64955 16.2996 1.91333C16.2931 2.43051 16.2295 2.9453 16.1098 3.44801C16.0508 3.70492 15.9672 3.95534 15.8603 4.19573" fill="#14599D"/>
<path d="M16.6991 3.99298C16.6793 3.75908 16.6848 3.52368 16.7153 3.29098C16.7432 3.064 16.7854 2.83908 16.8418 2.61764C16.8975 2.39601 16.9674 2.17833 17.0511 1.966C17.1348 1.74712 17.2421 1.53831 17.3709 1.34335C17.391 1.57735 17.3855 1.81289 17.3547 2.04568C17.3267 2.27264 17.2843 2.49751 17.2275 2.71885C17.1714 2.94035 17.1013 3.15796 17.0176 3.37033C16.9337 3.58904 16.8266 3.79782 16.6982 3.99298" fill="#14599D"/>
<path d="M17.5931 3.95455C17.5928 3.74521 17.6177 3.53662 17.6671 3.33339C17.7129 3.13631 17.7729 2.94289 17.8463 2.75463C17.9192 2.56617 18.0057 2.38346 18.1051 2.20801C18.2056 2.02544 18.3279 1.85615 18.4692 1.70395C18.4699 1.91335 18.4452 2.12204 18.3957 2.32528C18.3501 2.52239 18.2901 2.71578 18.2164 2.90388C18.1432 3.09224 18.0566 3.27494 17.9573 3.4505C17.8564 3.63295 17.7342 3.8021 17.5931 3.95455Z" fill="#14599D"/>
<path d="M18.1791 4.66665C18.2205 4.42931 18.2865 4.1971 18.3761 3.97393C18.4617 3.75542 18.5606 3.54254 18.6722 3.33654C18.7833 3.13029 18.9073 2.93145 19.0433 2.74121C19.1808 2.54474 19.3387 2.36392 19.5144 2.20188C19.4736 2.4394 19.4077 2.67176 19.3179 2.89493C19.2325 3.1135 19.1334 3.32628 19.0213 3.532C18.9098 3.73807 18.7857 3.93684 18.6497 4.12715C18.5121 4.32347 18.3543 4.50421 18.1791 4.66665Z" fill="#14599D"/>
<path d="M18.5324 5.60966C18.63 5.33677 18.7513 5.0732 18.8947 4.82203C19.0337 4.57398 19.1853 4.33342 19.3488 4.10131C19.5118 3.86875 19.6866 3.64505 19.8726 3.43112C20.0601 3.21198 20.2664 3.01031 20.4892 2.82851C20.392 3.10159 20.2709 3.3653 20.1275 3.61647C19.9884 3.86458 19.8367 4.1051 19.6728 4.33702C19.5095 4.56933 19.3345 4.79292 19.1485 5.00689C18.961 5.22596 18.7549 5.42757 18.5324 5.60966Z" fill="#14599D"/>
<path d="M18.9963 6.57487C19.1055 6.26697 19.2387 5.96842 19.3946 5.68205C19.7071 5.10615 20.1165 4.59038 20.6041 4.15813C20.8467 3.94272 21.106 3.74761 21.3795 3.57473C21.2174 3.85691 21.0337 4.1257 20.8302 4.3786L20.2435 5.12085L19.6534 5.85995C19.4529 6.11546 19.2332 6.35471 18.9962 6.57553" fill="#14599D"/>
<path d="M20.638 10.8117C20.638 10.8117 20.7176 10.6399 20.6208 9.93197C20.524 9.22401 21.1259 8.47165 22.2147 8.05705C22.1578 8.47272 22.1271 8.89165 22.1226 9.3113C22.12 9.95731 21.6601 10.4152 20.638 10.8122" fill="#14599D"/>
<path d="M6.43744 18.8441C6.43744 18.8441 7.73739 19.3397 10.2909 21.9748C11.3622 23.0803 12.1891 23.9976 12.7053 24.7438C12.3468 21.9671 11.0563 19.6226 8.88041 17.7989C8.53591 17.487 8.1722 17.1978 7.7915 16.9331C6.87424 16.2644 6.13073 15.379 5.62507 14.3532C5.62507 14.3532 5.62507 15.6321 5.64593 15.7663C5.49926 15.6975 5.3583 15.628 5.21929 15.5576C4.54348 15.0606 3.27302 13.8884 2.84003 12.6543C2.74671 13.0734 2.68714 13.4995 2.66191 13.9285C1.75959 13.2207 0.97365 12.3718 0.333496 11.4133C0.409137 13.1905 0.859692 14.9304 1.65464 16.5151C1.51123 16.4108 0.697881 15.8145 0.402104 15.4708C0.402104 15.4708 0.912829 17.4293 2.35196 18.8449C3.1755 19.6512 4.1291 20.3077 5.17121 20.7859C5.1955 20.8051 5.2201 20.8235 5.24487 20.8426L3.9309 20.7089C3.9309 20.7089 4.95236 21.8187 7.11113 22.8797C8.80236 23.7115 10.2511 24.2711 11.5926 25.2782C10.5756 23.6738 8.89916 21.1101 6.43858 18.8449" fill="#14599D"/>
<path d="M23.5627 18.8441C23.5627 18.8441 22.2628 19.3397 19.7093 21.9748C18.638 23.0803 17.8111 23.9976 17.2948 24.7438C17.6534 21.9671 18.9439 19.6226 21.1197 17.7989C21.4643 17.487 21.828 17.1979 22.2087 16.9331C23.126 16.2644 23.8695 15.3791 24.3753 14.3533C24.3753 14.3533 24.3753 15.6323 24.3544 15.7664C24.5011 15.6977 24.642 15.6281 24.781 15.5577C25.4568 15.0608 26.7273 13.8885 27.1603 12.6545C27.2536 13.0736 27.3132 13.4997 27.3384 13.9286C28.2405 13.2208 29.0262 12.3719 29.6662 11.4135C29.5905 13.1907 29.14 14.9306 28.345 16.5153C28.4884 16.411 29.3018 15.8146 29.5976 15.4709C29.5976 15.4709 29.0868 17.4295 27.6477 18.8451C26.8242 19.6513 25.8706 20.3079 24.8285 20.7861C24.8042 20.8053 24.7796 20.8237 24.7548 20.8427L26.0688 20.7091C26.0688 20.7091 25.0473 21.8189 22.8885 22.8798C21.1973 23.7117 19.7486 24.2712 18.4071 25.2784C19.4241 23.6739 21.1005 21.1103 23.5611 18.8451" fill="#14599D"/>
</svg>
